<svg width="69" height="70" viewBox="0 0 69 70" fill="none" xmlns="http://www.w3.org/2000/svg">
    <path d="M36.7333 3.26667C36.7333 2.01482 35.7334 1 34.5 1C33.2666 1 32.2667 2.01482 32.2667 3.26667V29.5277L18.708 15.7667C17.8358 14.8815 16.4217 14.8815 15.5496 15.7667C14.6774 16.6518 14.6774 18.087 15.5496 18.9722L29.1083 32.7333H3.23333C1.9999 32.7333 1 33.7482 1 35C1 36.2518 1.9999 37.2667 3.23333 37.2667H29.1083L15.5496 51.0278C14.6774 51.913 14.6774 53.3481 15.5496 54.2333C16.4218 55.1185 17.8358 55.1185 18.708 54.2333L32.2667 40.4723V66.7333C32.2667 67.9852 33.2666 69 34.5 69C35.7334 69 36.7333 67.9852 36.7333 66.7333V40.4721L50.2921 54.2333C51.1643 55.1185 52.5783 55.1185 53.4505 54.2333C54.3227 53.3481 54.3227 51.9129 53.4505 51.0277L39.8918 37.2667H65.7667C67.0001 37.2667 68 36.2518 68 35C68 33.7482 67.0001 32.7333 65.7667 32.7333H39.8918L53.4505 18.9723C54.3227 18.0871 54.3227 16.6519 53.4505 15.7667C52.5783 14.8815 51.1643 14.8815 50.2921 15.7667L36.7333 29.5279V3.26667Z" fill="url(#paint0_linear_266_4332)" stroke="black" stroke-width="0.5" stroke-linecap="round"/>
    <defs>
        <linearGradient id="paint0_linear_266_4332" x1="58" y1="35" x2="-11.5" y2="35" gradientUnits="userSpaceOnUse">
            <stop stop-color="#3C42D0"/>
            <stop offset="1" stop-color="#DC40B6"/>
        </linearGradient>
    </defs>
</svg>
