<svg width="69" height="69" viewBox="0 0 69 69" fill="none" xmlns="http://www.w3.org/2000/svg">
    <path d="M36.7333 3.23333C36.7333 1.9999 35.7334 1 34.5 1C33.2666 1 32.2667 1.9999 32.2667 3.23333V29.1082L18.708 15.5495C17.8358 14.6773 16.4217 14.6773 15.5496 15.5495C14.6774 16.4217 14.6774 17.8357 15.5496 18.7079L29.1083 32.2667H3.23333C1.9999 32.2667 1 33.2666 1 34.5C1 35.7334 1.9999 36.7333 3.23333 36.7333H29.1083L15.5496 50.2921C14.6774 51.1642 14.6774 52.5783 15.5496 53.4505C16.4218 54.3226 17.8358 54.3226 18.708 53.4505L32.2667 39.8918V65.7667C32.2667 67.0001 33.2666 68 34.5 68C35.7334 68 36.7333 67.0001 36.7333 65.7667V39.8917L50.2921 53.4504C51.1643 54.3226 52.5783 54.3226 53.4505 53.4504C54.3227 52.5783 54.3227 51.1642 53.4505 50.292L39.8918 36.7333H65.7667C67.0001 36.7333 68 35.7334 68 34.5C68 33.2666 67.0001 32.2667 65.7667 32.2667H39.8918L53.4505 18.708C54.3227 17.8358 54.3227 16.4217 53.4505 15.5496C52.5783 14.6774 51.1643 14.6774 50.2921 15.5496L36.7333 29.1083V3.23333Z" fill="url(#paint0_linear_266_4335)" stroke="black" stroke-width="0.5" stroke-linecap="round"/>
    <defs>
        <linearGradient id="paint0_linear_266_4335" x1="58" y1="34.5" x2="-11.5" y2="34.5" gradientUnits="userSpaceOnUse">
            <stop stop-color="#D42A32"/>
            <stop offset="1" stop-color="#FB8F44"/>
        </linearGradient>
    </defs>
</svg>
